<svg width="32" height="32" viewBox="0 0 32 32" fill="none" xmlns="http://www.w3.org/2000/svg">
<path d="M16.001 2C12.1988 2 11.7216 2.01663 10.2283 2.08458C8.73786 2.15283 7.72052 2.38879 6.83034 2.735C5.90954 3.09258 5.12845 3.57092 4.35027 4.34938C3.57152 5.12754 3.09318 5.90862 2.73442 6.82912C2.38734 7.71958 2.15108 8.73721 2.084 10.227C2.0175 11.7204 2 12.1978 2 16C2 19.8022 2.01692 20.2779 2.08458 21.7712C2.15313 23.2616 2.38909 24.279 2.73501 25.1691C3.09289 26.0899 3.57122 26.871 4.34969 27.6492C5.12757 28.4279 5.90867 28.9074 6.82888 29.265C7.71964 29.6112 8.73728 29.8472 10.2274 29.9154C11.7208 29.9834 12.1976 30 15.9996 30C19.8021 30 20.2778 29.9834 21.7711 29.9154C23.2616 29.8472 24.2801 29.6112 25.1708 29.265C26.0913 28.9074 26.8713 28.4279 27.6491 27.6492C28.4279 26.871 28.9062 26.0899 29.265 25.1694C29.6092 24.279 29.8454 23.2613 29.9154 21.7715C29.9825 20.2782 30 19.8022 30 16C30 12.1978 29.9825 11.7207 29.9154 10.2273C29.8454 8.73692 29.6092 7.71958 29.265 6.82942C28.9062 5.90862 28.4279 5.12754 27.6491 4.34938C26.8704 3.57063 26.0916 3.09229 25.17 2.735C24.2774 2.38879 23.2595 2.15283 21.7691 2.08458C20.2757 2.01663 19.8003 2 15.9969 2H16.001ZM14.7451 4.52292C15.1178 4.52233 15.5338 4.52292 16.001 4.52292C19.7391 4.52292 20.1821 4.53633 21.6582 4.60342C23.0233 4.66583 23.7641 4.89392 24.2576 5.08554C24.9109 5.33929 25.3767 5.64263 25.8665 6.13263C26.3565 6.62263 26.6598 7.08929 26.9141 7.74263C27.1058 8.23554 27.3341 8.97637 27.3963 10.3414C27.4633 11.8172 27.4779 12.2605 27.4779 15.9968C27.4779 19.733 27.4633 20.1764 27.3963 21.6522C27.3338 23.0172 27.1058 23.758 26.9141 24.251C26.6604 24.9043 26.3565 25.3695 25.8665 25.8592C25.3765 26.3492 24.9112 26.6525 24.2576 26.9063C23.7647 27.0988 23.0233 27.3263 21.6582 27.3887C20.1824 27.4558 19.7391 27.4704 16.001 27.4704C12.2627 27.4704 11.8196 27.4558 10.3438 27.3887C8.97878 27.3257 8.23794 27.0976 7.74414 26.906C7.0908 26.6523 6.62413 26.3489 6.13413 25.8589C5.64412 25.3689 5.34079 24.9034 5.08645 24.2498C4.89482 23.7569 4.66644 23.016 4.60432 21.651C4.53724 20.1752 4.52382 19.7319 4.52382 15.9933C4.52382 12.2547 4.53724 11.8137 4.60432 10.3379C4.66674 8.97288 4.89482 8.23204 5.08645 7.73854C5.3402 7.08521 5.64412 6.61854 6.13413 6.12854C6.62413 5.63854 7.0908 5.33521 7.74414 5.08087C8.23765 4.88837 8.97878 4.66088 10.3438 4.59817C11.6353 4.53983 12.1358 4.52233 14.7451 4.51942V4.52292Z" fill="url(#paint0_radial_2199_9)"/>
<path d="M16.001 2C12.1988 2 11.7216 2.01663 10.2283 2.08458C8.73786 2.15283 7.72052 2.38879 6.83034 2.735C5.90954 3.09258 5.12845 3.57092 4.35027 4.34938C3.57152 5.12754 3.09318 5.90862 2.73442 6.82912C2.38734 7.71958 2.15108 8.73721 2.084 10.227C2.0175 11.7204 2 12.1978 2 16C2 19.8022 2.01692 20.2779 2.08458 21.7712C2.15313 23.2616 2.38909 24.279 2.73501 25.1691C3.09289 26.0899 3.57122 26.871 4.34969 27.6492C5.12757 28.4279 5.90867 28.9074 6.82888 29.265C7.71964 29.6112 8.73728 29.8472 10.2274 29.9154C11.7208 29.9834 12.1976 30 15.9996 30C19.8021 30 20.2778 29.9834 21.7711 29.9154C23.2616 29.8472 24.2801 29.6112 25.1708 29.265C26.0913 28.9074 26.8713 28.4279 27.6491 27.6492C28.4279 26.871 28.9062 26.0899 29.265 25.1694C29.6092 24.279 29.8454 23.2613 29.9154 21.7715C29.9825 20.2782 30 19.8022 30 16C30 12.1978 29.9825 11.7207 29.9154 10.2273C29.8454 8.73692 29.6092 7.71958 29.265 6.82942C28.9062 5.90862 28.4279 5.12754 27.6491 4.34938C26.8704 3.57063 26.0916 3.09229 25.17 2.735C24.2774 2.38879 23.2595 2.15283 21.7691 2.08458C20.2757 2.01663 19.8003 2 15.9969 2H16.001ZM14.7451 4.52292C15.1178 4.52233 15.5338 4.52292 16.001 4.52292C19.7391 4.52292 20.1821 4.53633 21.6582 4.60342C23.0233 4.66583 23.7641 4.89392 24.2576 5.08554C24.9109 5.33929 25.3767 5.64263 25.8665 6.13263C26.3565 6.62263 26.6598 7.08929 26.9141 7.74263C27.1058 8.23554 27.3341 8.97637 27.3963 10.3414C27.4633 11.8172 27.4779 12.2605 27.4779 15.9968C27.4779 19.733 27.4633 20.1764 27.3963 21.6522C27.3338 23.0172 27.1058 23.758 26.9141 24.251C26.6604 24.9043 26.3565 25.3695 25.8665 25.8592C25.3765 26.3492 24.9112 26.6525 24.2576 26.9063C23.7647 27.0988 23.0233 27.3263 21.6582 27.3887C20.1824 27.4558 19.7391 27.4704 16.001 27.4704C12.2627 27.4704 11.8196 27.4558 10.3438 27.3887C8.97878 27.3257 8.23794 27.0976 7.74414 26.906C7.0908 26.6523 6.62413 26.3489 6.13413 25.8589C5.64412 25.3689 5.34079 24.9034 5.08645 24.2498C4.89482 23.7569 4.66644 23.016 4.60432 21.651C4.53724 20.1752 4.52382 19.7319 4.52382 15.9933C4.52382 12.2547 4.53724 11.8137 4.60432 10.3379C4.66674 8.97288 4.89482 8.23204 5.08645 7.73854C5.3402 7.08521 5.64412 6.61854 6.13413 6.12854C6.62413 5.63854 7.0908 5.33521 7.74414 5.08087C8.23765 4.88837 8.97878 4.66088 10.3438 4.59817C11.6353 4.53983 12.1358 4.52233 14.7451 4.51942V4.52292Z" fill="url(#paint1_radial_2199_9)"/>
<path d="M23.4441 6.81311C23.1118 6.81311 22.7869 6.91166 22.5106 7.09628C22.2344 7.28091 22.019 7.54332 21.8919 7.85034C21.7647 8.15735 21.7315 8.49517 21.7964 8.82108C21.8613 9.14698 22.0213 9.44633 22.2563 9.68126C22.4913 9.91619 22.7907 10.0761 23.1167 10.1409C23.4426 10.2057 23.7804 10.1723 24.0874 10.0451C24.3944 9.91782 24.6567 9.7024 24.8412 9.42604C25.0258 9.14969 25.1242 8.82482 25.1241 8.49253C25.1241 7.56503 24.3716 6.81253 23.4441 6.81253V6.81311Z" fill="url(#paint2_radial_2199_9)"/>
<path d="M23.4441 6.81311C23.1118 6.81311 22.7869 6.91166 22.5106 7.09628C22.2344 7.28091 22.019 7.54332 21.8919 7.85034C21.7647 8.15735 21.7315 8.49517 21.7964 8.82108C21.8613 9.14698 22.0213 9.44633 22.2563 9.68126C22.4913 9.91619 22.7907 10.0761 23.1167 10.1409C23.4426 10.2057 23.7804 10.1723 24.0874 10.0451C24.3944 9.91782 24.6567 9.7024 24.8412 9.42604C25.0258 9.14969 25.1242 8.82482 25.1241 8.49253C25.1241 7.56503 24.3716 6.81253 23.4441 6.81253V6.81311Z" fill="url(#paint3_radial_2199_9)"/>
<path fill-rule="evenodd" clip-rule="evenodd" d="M15.9709 8.77603C12.0004 8.77603 8.78126 11.9952 8.78126 15.9656C8.78126 19.9361 12.0004 23.1537 15.9709 23.1537C19.9414 23.1537 23.1597 19.9361 23.1597 15.9656C23.1597 11.9952 19.9414 8.77603 15.9709 8.77603ZM16 20.5938C18.5371 20.5938 20.5938 18.5371 20.5938 16C20.5938 13.463 18.5371 11.4063 16 11.4063C13.4629 11.4063 11.4063 13.463 11.4063 16C11.4063 18.5371 13.4629 20.5938 16 20.5938Z" fill="url(#paint4_radial_2199_9)"/>
<path fill-rule="evenodd" clip-rule="evenodd" d="M15.9709 8.77603C12.0004 8.77603 8.78126 11.9952 8.78126 15.9656C8.78126 19.9361 12.0004 23.1537 15.9709 23.1537C19.9414 23.1537 23.1597 19.9361 23.1597 15.9656C23.1597 11.9952 19.9414 8.77603 15.9709 8.77603ZM16 20.5938C18.5371 20.5938 20.5938 18.5371 20.5938 16C20.5938 13.463 18.5371 11.4063 16 11.4063C13.4629 11.4063 11.4063 13.463 11.4063 16C11.4063 18.5371 13.4629 20.5938 16 20.5938Z" fill="url(#paint5_radial_2199_9)"/>
<defs>
<radialGradient id="paint0_radial_2199_9" cx="0" cy="0" r="1" gradientUnits="userSpaceOnUse" gradientTransform="translate(9.43754 32.1566) rotate(-90) scale(27.7501 25.8097)">
<stop stop-color="#FFDD55"/>
<stop offset="0.1" stop-color="#FFDD55"/>
<stop offset="0.5" stop-color="#FF543E"/>
<stop offset="1" stop-color="#C837AB"/>
</radialGradient>
<radialGradient id="paint1_radial_2199_9" cx="0" cy="0" r="1" gradientUnits="userSpaceOnUse" gradientTransform="translate(-2.69015 4.01707) rotate(78.6806) scale(12.4044 51.1314)">
<stop stop-color="#3771C8"/>
<stop offset="0.128" stop-color="#3771C8"/>
<stop offset="1" stop-color="#6600FF" stop-opacity="0"/>
</radialGradient>
<radialGradient id="paint2_radial_2199_9" cx="0" cy="0" r="1" gradientUnits="userSpaceOnUse" gradientTransform="translate(9.43754 32.1566) rotate(-90) scale(27.7501 25.8097)">
<stop stop-color="#FFDD55"/>
<stop offset="0.1" stop-color="#FFDD55"/>
<stop offset="0.5" stop-color="#FF543E"/>
<stop offset="1" stop-color="#C837AB"/>
</radialGradient>
<radialGradient id="paint3_radial_2199_9" cx="0" cy="0" r="1" gradientUnits="userSpaceOnUse" gradientTransform="translate(-2.69015 4.01707) rotate(78.6806) scale(12.4044 51.1314)">
<stop stop-color="#3771C8"/>
<stop offset="0.128" stop-color="#3771C8"/>
<stop offset="1" stop-color="#6600FF" stop-opacity="0"/>
</radialGradient>
<radialGradient id="paint4_radial_2199_9" cx="0" cy="0" r="1" gradientUnits="userSpaceOnUse" gradientTransform="translate(9.43754 32.1566) rotate(-90) scale(27.7501 25.8097)">
<stop stop-color="#FFDD55"/>
<stop offset="0.1" stop-color="#FFDD55"/>
<stop offset="0.5" stop-color="#FF543E"/>
<stop offset="1" stop-color="#C837AB"/>
</radialGradient>
<radialGradient id="paint5_radial_2199_9" cx="0" cy="0" r="1" gradientUnits="userSpaceOnUse" gradientTransform="translate(-2.69015 4.01707) rotate(78.6806) scale(12.4044 51.1314)">
<stop stop-color="#3771C8"/>
<stop offset="0.128" stop-color="#3771C8"/>
<stop offset="1" stop-color="#6600FF" stop-opacity="0"/>
</radialGradient>
</defs>
</svg>
