<svg xmlns="http://www.w3.org/2000/svg" xmlns:xlink="http://www.w3.org/1999/xlink"><defs><filter id="filter0_b_2024_98" x="-12" y="-12" width="128" height="128" filterUnits="userSpaceOnUse" color-interpolation-filters="sRGB"><feFlood flood-opacity="0" result="BackgroundImageFix"/><feGaussianBlur in="BackgroundImageFix" stdDeviation="6"/><feComposite in2="SourceAlpha" operator="in" result="effect1_backgroundBlur_2024_98"/><feBlend in="SourceGraphic" in2="effect1_backgroundBlur_2024_98" result="shape"/></filter></defs><symbol id="icon__cross" viewBox="0 0 24 24"><g fill="none"><path d="M6 6l12 12M6 18L18 6M6 6l12 12M6 18L18 6" stroke="#000" stroke-width="1.5" stroke-linecap="round" stroke-linejoin="round"/></g></symbol><symbol id="icon__email" viewBox="0 0 32 32"><g fill="none"><rect stroke="currentColor" x="4" y="6" width="24" height="20" rx="4" stroke-width="2.5" stroke-linecap="round" stroke-linejoin="round"/><path stroke="currentColor" d="M9.333 11.979l5.606 2.444a2.667 2.667 0 002.125.003l5.603-2.423" stroke-width="2.5" stroke-linecap="round" stroke-linejoin="round"/></g></symbol><symbol id="icon__location" viewBox="0 0 32 32"><g fill="none"><path clip-rule="evenodd" d="M16 17.333v0a4 4 0 01-4-4v0a4 4 0 014-4v0a4 4 0 014 4v0a4 4 0 01-4 4z" stroke="currentColor" stroke-width="2.5" stroke-linecap="round" stroke-linejoin="round"/><path clip-rule="evenodd" d="M16 28s-9.333-7.667-9.333-14.667a9.333 9.333 0 0118.666 0C25.333 20.333 16 28 16 28z" stroke="currentColor" stroke-width="2.5" stroke-linecap="round" stroke-linejoin="round"/></g></symbol><symbol id="icon__marker" viewBox="0 0 8 8"><g fill="none"><path fill="#7E22CE" d="M0 0h8v8H0z"/></g></symbol><symbol id="icon__phone" viewBox="0 0 32 32"><g fill="none"><path clip-rule="evenodd" d="M13.397 18.492c-1.56-1.56-2.736-3.306-3.517-5.078a.998.998 0 01.221-1.103l1.092-1.092c.895-.895.895-2.16.114-2.941L9.74 6.714a2.666 2.666 0 00-3.77 0l-.87.868c-.988.988-1.4 2.413-1.133 3.826.659 3.484 2.683 7.299 5.948 10.564 3.265 3.266 7.08 5.29 10.564 5.948 1.413.267 2.839-.145 3.827-1.133l.868-.868a2.666 2.666 0 000-3.77l-1.564-1.565a1.999 1.999 0 00-2.828 0l-1.204 1.206a.998.998 0 01-1.103.22c-1.772-.782-3.519-1.959-5.079-3.518z" stroke="currentColor" stroke-width="2.5" stroke-linecap="round" stroke-linejoin="round"/><path d="M17.227 6.893v-3.12m5.56 5.32l2.2-2.187M25 14.667h3.107" stroke="currentColor" stroke-width="2.5" stroke-linecap="round" stroke-linejoin="round"/></g></symbol><symbol id="icon__play" viewBox="0 0 12 14"><g fill="none"><path d="M12 7L0 13.928V.072L12 7z" fill="#9333EA"/></g></symbol><symbol id="icon__video" viewBox="0 0 104 104"><g fill="none"><g filter="url(#filter0_b_2024_98)"><rect width="104" height="104" rx="52" fill="#fff" fill-opacity=".85"/><path d="M76 52L40 72.785v-41.57L76 52z" fill="#9333EA"/></g></g></symbol><symbol id="logo__utims" viewBox="0 0 126 24"><g fill="none"><path d="M60.923 2.412h-4.485v19.809h4.485V2.412zm-55.231 0V18.58H18.78V2.412h4.486v15.236c0 1.67-.41 2.85-1.229 3.539-.82.69-1.933 1.034-3.343 1.034h-13.2c-1.43 0-2.5-.345-3.215-1.034-.715-.69-1.072-1.869-1.072-3.54V2.413h4.486zM42.18 22.22h-4.486V5.793h-9.057v-3.38h22.43v3.38H42.18V22.22zM69.153 2.412h4.228l8.83 11.652L91.04 2.412h4.371v19.809h-4.486V8.47l-8.6 11.361h-.857L73.153 8.705V22.22h-4V2.412zm34.344 7.574c0 2.583 1.248 3.875 3.743 3.875h13.43v4.864h-14.23V16.25l-3.6.612-.057.408a4.807 4.807 0 00-.057.728c0 1.38.3 2.428.9 3.146.6.719 1.566 1.078 2.9 1.078h12.858c.8 0 1.529-.044 2.186-.131.657-.088 1.218-.267 1.685-.539.467-.272.829-.66 1.086-1.165.257-.505.386-1.175.386-2.01v-4.312c0-1.417-.338-2.398-1.014-2.941-.677-.544-1.672-.816-2.986-.816h-13.173V5.792h13.201v2.126l3.743-.699v-.204c0-.058.005-.136.015-.233.009-.097.014-.194.014-.291 0-.855-.114-1.549-.343-2.083-.228-.534-.548-.947-.957-1.238-.41-.291-.91-.49-1.5-.597a11.137 11.137 0 00-1.972-.16h-11.4c-.686 0-1.329.048-1.929.145-.6.098-1.114.287-1.543.568a2.944 2.944 0 00-1.014 1.151c-.248.486-.372 1.117-.372 1.893v3.816z" fill="#C084FC"/></g></symbol></svg>